<?xml version="1.0" encoding="UTF-8"?>
<svg enable-background="new 0 0 100 50" version="1.1" viewBox="0 0 100 50" xml:space="preserve" xmlns="http://www.w3.org/2000/svg">
<style type="text/css">
	.st0{fill:#051F20;}
</style>
<path class="st0" d="m93.92 19.43c-2.1-0.12-4.19-0.23-6.29-0.31-1.57-0.06-3.14-0.11-4.71-0.12h-0.01c-2.47-0.02-4.94 0.01-7.41 0.04-2.43 0.04-4.85 0.07-7.28 0.12-0.47 0.01-0.93 0.03-1.4 0.05-0.32-0.54-0.65-1.08-0.97-1.62-0.31-0.51-0.62-1.03-0.93-1.54-0.12-0.2-0.25-0.4-0.36-0.6-0.04-0.07-0.07-0.13-0.11-0.2-0.03-0.05-0.06-0.09-0.11-0.13-0.04-0.03-0.09-0.05-0.14-0.07h-0.01c-0.03-0.01-0.05-0.02-0.08-0.02-0.06-0.01-0.13 0-0.19 0.02-0.01 0-0.02 0.01-0.03 0.02-0.01 0-0.02 0-0.02 0.01-0.02 0.01-0.04 0.03-0.06 0.04s-0.04 0.02-0.05 0.04c-0.04 0.04-0.07 0.08-0.09 0.13-0.03 0.07-0.06 0.14-0.09 0.21-0.02 0.04-0.02 0.07-0.03 0.11-0.03 0.14 0 0.28 0.02 0.42 0.04 0.17 0.09 0.34 0.14 0.5 0.18 0.58 0.39 1.15 0.6 1.72 0.13 0.35 0.27 0.71 0.41 1.06-0.7 0.04-1.39 0.07-2.09 0.12-0.49 0.03-0.98 0.07-1.47 0.11-0.04-0.21-0.08-0.41-0.12-0.62-0.13-0.56-0.25-1.11-0.35-1.68-0.09-0.52-0.13-1.05-0.16-1.58-0.01-0.16-0.02-0.32-0.01-0.48 0.01-0.08 0.01-0.16 0.04-0.23 0.11 0 0.2-0.07 0.2-0.17 0-0.07-0.04-0.14-0.11-0.17-0.11-0.05-0.23-0.05-0.34 0.01-0.1 0.05-0.16 0.13-0.21 0.22-0.14 0.24-0.18 0.54-0.22 0.81-0.07 0.55-0.14 1.09-0.18 1.64-0.05 0.59-0.04 1.18-0.03 1.78 0 0.19 0.01 0.39 0.02 0.58-1.17 0.09-2.33 0.18-3.5 0.27-0.02-0.17-0.04-0.35-0.06-0.52-0.06-0.47-0.13-0.94-0.22-1.41-0.12-0.61-0.31-1.23-0.66-1.75l-0.36-0.54c-0.08-0.12-0.2-0.2-0.35-0.23-0.04-0.01-0.08-0.01-0.12 0-0.07 0.01-0.15 0.03-0.21 0.06-0.13 0.07-0.21 0.19-0.24 0.32-0.05 0.21-0.1 0.41-0.14 0.62-0.14 0.58-0.13 1.2-0.07 1.79 0.04 0.44 0.07 0.89 0.09 1.33 0.01 0.17 0.02 0.34 0.03 0.52-1.06 0.09-2.12 0.18-3.17 0.27-0.07-0.66-0.13-1.32-0.19-1.98-0.07-0.77-0.14-1.55-0.18-2.32-0.04-0.76-0.12-1.51-0.19-2.27-0.09-0.94-0.18-1.87-0.28-2.81-0.08-0.75-0.17-1.51-0.27-2.26-0.09-0.62-0.19-1.24-0.34-1.85-0.15-0.59-0.36-1.17-0.61-1.73-0.11-0.25-0.22-0.51-0.34-0.76-0.08-0.16-0.15-0.32-0.25-0.48-0.06-0.1-0.12-0.19-0.18-0.29-0.04-0.06-0.1-0.11-0.18-0.13-0.02-0.01-0.05-0.01-0.07-0.01-0.01 0-0.02 0.01-0.04 0.01-0.01 0-0.02 0-0.02 0.01-0.03 0-0.05 0.01-0.08 0.02-0.05 0.03-0.1 0.07-0.13 0.11-0.06 0.1-0.12 0.19-0.18 0.29-0.13 0.21-0.16 0.48-0.17 0.72-0.01 0.31 0.03 0.61 0.09 0.92 0.1 0.54 0.18 1.08 0.24 1.63 0.07 0.58 0.11 1.15 0.15 1.73 0.05 0.74 0.09 1.48 0.12 2.22 0.04 0.95 0.1 1.89 0.17 2.84 0.03 0.45 0.06 0.89 0.09 1.34 0.01 0.27 0.03 0.54 0.03 0.82 0 0.32 0.02 0.63 0.04 0.95 0.03 0.49 0.06 0.99 0.1 1.48 0.05 0.67 0.11 1.35 0.18 2.02-1.2 0.1-2.39 0.2-3.59 0.31-0.61 0.05-1.23 0.11-1.84 0.17-0.26-0.63-0.53-1.26-0.8-1.88-0.19-0.45-0.4-0.9-0.63-1.33-0.18-0.34-0.38-0.68-0.61-0.99-0.17-0.23-0.36-0.45-0.6-0.62-0.13-0.1-0.27-0.18-0.42-0.23-0.31-0.11-0.68-0.09-0.95 0.11-0.14 0.11-0.25 0.25-0.3 0.42-0.07 0.25 0 0.51 0.09 0.74 0.07 0.2 0.16 0.39 0.25 0.59 0.13 0.28 0.24 0.56 0.35 0.85 0.16 0.42 0.31 0.84 0.45 1.26 0.15 0.45 0.31 0.89 0.47 1.34-1.11 0.11-2.21 0.22-3.32 0.33-0.02-0.12-0.04-0.24-0.06-0.37-0.08-0.49-0.17-0.97-0.29-1.45-0.09-0.37-0.19-0.74-0.32-1.1-0.1-0.3-0.23-0.59-0.38-0.86-0.13-0.24-0.27-0.47-0.4-0.71-0.02-0.04-0.04-0.09-0.07-0.12-0.04-0.06-0.09-0.1-0.16-0.12-0.07-0.03-0.14-0.03-0.21-0.02-0.17 0.03-0.27 0.16-0.29 0.31 0 0.01-0.01 0.01-0.01 0.01-0.04 0.28-0.08 0.57-0.12 0.85-0.1 0.67-0.06 1.35-0.01 2.02 0.05 0.59 0.08 1.18 0.12 1.78-0.78 0.08-1.56 0.17-2.33 0.26-0.01-0.05-0.01-0.1-0.02-0.15-0.12-0.87-0.29-1.74-0.45-2.61-0.1-0.53-0.2-1.06-0.33-1.58-0.08-0.34-0.17-0.68-0.31-1-0.09-0.21-0.19-0.43-0.28-0.64-0.05-0.11-0.14-0.21-0.26-0.26-0.1-0.04-0.21-0.05-0.31-0.03-0.15 0.03-0.27 0.12-0.34 0.24-0.12 0.2-0.24 0.4-0.36 0.61-0.22 0.36-0.29 0.8-0.33 1.21-0.06 0.56-0.07 1.13-0.06 1.69 0.02 0.87 0.03 1.74 0.07 2.61 0 0.09 0 0.19 0.01 0.28-0.54 0.07-1.08 0.13-1.62 0.2-1.02 0.14-2.05 0.28-3.07 0.44-0.16-0.67-0.32-1.33-0.48-2-0.11-0.44-0.21-0.87-0.3-1.31-0.06-0.29-0.12-0.59-0.17-0.88-0.1-0.67-0.16-1.34-0.22-2.01-0.04-0.5-0.09-0.99-0.13-1.49-0.01-0.07-0.02-0.15-0.04-0.22 0-0.01 0-0.01-0.01-0.02-0.01-0.02-0.01-0.05-0.02-0.07-0.08-0.15-0.25-0.25-0.44-0.24-0.05 0-0.11 0.01-0.16 0.03-0.18 0.06-0.28 0.21-0.32 0.37-0.01 0.05-0.02 0.1-0.02 0.15-0.04 0.5-0.07 0.99-0.11 1.49-0.05 0.7-0.1 1.4-0.1 2.1 0 0.33 0.02 0.66 0.04 0.99 0.03 0.46 0.07 0.92 0.12 1.39 0.07 0.69 0.13 1.37 0.2 2.06-0.58 0.1-1.16 0.2-1.74 0.3-1.96 0.35-3.91 0.72-5.85 1.13-1.96 0.42-3.92 0.85-5.88 1.3-0.87 0.2-1.74 0.39-2.61 0.58-0.43 0.09-0.86 0.19-1.3 0.26-0.24 0.04-0.49 0.08-0.73 0.12-0.05 0.01-0.1 0.02-0.14 0.04l-0.06 0.03c-0.02 0.01-0.03 0.02-0.05 0.03-0.02 0.02-0.05 0.03-0.07 0.05-0.03 0.03-0.06 0.07-0.09 0.1-0.14 0.22-0.1 0.5 0.1 0.67 0.11 0.09 0.25 0.14 0.4 0.15 0.25 0 0.49 0.01 0.74 0.01 0.21 0 0.42-0.02 0.63-0.04 0.28-0.03 0.56-0.06 0.84-0.1 0.9-0.12 1.79-0.27 2.68-0.43 1.96-0.34 3.93-0.64 5.91-0.89 1.96-0.24 3.91-0.47 5.87-0.68 0.52-0.06 1.04-0.11 1.55-0.17 0.02 0.3 0.04 0.6 0.06 0.89 0.08 1.36 0.15 2.73 0.2 4.09 0.07 1.8 0.12 3.61 0.17 5.41 0.02 0.91 0.05 1.81 0.07 2.72 0.02 0.51 0.03 1.02 0.06 1.52 0.04 0.73 0.12 1.46 0.22 2.18 0.1 0.68 0.19 1.35 0.29 2.02 0.03 0.19 0.06 0.37 0.08 0.56 0.01 0.05 0.02 0.1 0.02 0.15 0.03 0.2 0.09 0.39 0.2 0.58 0.47 0.83 1.57 1.15 2.46 0.71 0.03-0.02 0.07-0.03 0.1-0.05 0.37-0.21 0.65-0.54 0.78-0.92 0.04-0.12 0.07-0.24 0.08-0.37 0.01-0.11 0.01-0.23 0-0.34-0.02-0.21-0.04-0.43-0.06-0.64-0.05-0.45-0.19-0.9-0.42-1.3-0.06-0.29-0.11-0.57-0.16-0.86-0.11-0.64-0.2-1.28-0.25-1.92-0.11-1.39-0.2-2.79-0.3-4.18-0.13-1.82-0.26-3.65-0.46-5.47-0.15-1.39-0.33-2.77-0.55-4.15-0.05-0.31-0.1-0.61-0.15-0.92 0.98-0.11 1.95-0.21 2.93-0.32 0.45-0.05 0.91-0.09 1.36-0.14 0.01 0.16 0.02 0.32 0.04 0.47 0.06 0.77 0.13 1.54 0.21 2.3 0.05 0.53 0.11 1.06 0.23 1.58 0.04 0.16 0.07 0.31 0.11 0.47 0.01 0.03 0.02 0.05 0.03 0.08 0.02 0.05 0.03 0.11 0.06 0.16 0.02 0.05 0.04 0.09 0.07 0.14 0.02 0.05 0.05 0.09 0.08 0.13s0.06 0.09 0.09 0.13 0.07 0.08 0.1 0.11c0.04 0.04 0.08 0.07 0.12 0.1s0.08 0.06 0.13 0.09c0.04 0.03 0.09 0.06 0.14 0.08s0.09 0.05 0.14 0.07 0.11 0.04 0.17 0.06c0.03 0.01 0.05 0.02 0.08 0.03s0.06 0.01 0.09 0.02c0.02 0.01 0.05 0.01 0.07 0.01 0.09 0.01 0.19 0.02 0.28 0.02h0.06c0.09 0 0.18-0.01 0.27-0.03h0.03 0.01c0.01 0 0.02 0 0.03-0.01 0.02 0 0.03-0.01 0.05-0.02 0.03-0.01 0.06-0.02 0.1-0.03 0.05-0.02 0.11-0.03 0.16-0.05 0.02-0.01 0.03-0.02 0.05-0.02 0.03-0.01 0.06-0.03 0.09-0.05 0.05-0.03 0.11-0.06 0.15-0.09 0.01-0.01 0.02-0.02 0.04-0.02 0.03-0.02 0.05-0.05 0.08-0.07 0.04-0.04 0.09-0.07 0.13-0.11s0.07-0.08 0.1-0.12 0.06-0.07 0.09-0.12c0.01-0.01 0.02-0.03 0.03-0.04 0-0.01 0.01-0.01 0.01-0.01 0.05-0.08 0.08-0.16 0.11-0.24 0-0.01 0.01-0.02 0.01-0.03 0.02-0.06 0.04-0.12 0.05-0.18 0-0.01 0-0.02 0.01-0.02 0.01-0.03 0.01-0.06 0.01-0.08v-0.01c0.01-0.05 0.01-0.09 0.01-0.14v-0.04-0.05c0-0.05-0.01-0.09-0.02-0.14-0.01-0.04-0.01-0.08-0.02-0.12v-0.02c-0.04-0.16-0.07-0.31-0.11-0.47-0.1-0.43-0.18-0.87-0.26-1.31-0.13-0.71-0.22-1.43-0.3-2.15-0.02-0.18-0.04-0.36-0.05-0.54 0.74-0.07 1.47-0.14 2.21-0.21 0.04 0.72 0.1 1.43 0.19 2.15 0.08 0.62 0.16 1.24 0.31 1.84 0.09 0.35 0.18 0.73 0.4 1.04 0.01 0.01 0.01 0.02 0.02 0.03 0.05 0.06 0.1 0.12 0.15 0.17 0.03 0.03 0.07 0.06 0.1 0.09 0.06 0.05 0.12 0.1 0.18 0.14 0.02 0.01 0.05 0.03 0.07 0.04 0.04 0.02 0.09 0.05 0.14 0.06 0.03 0.01 0.05 0.02 0.08 0.03 0.05 0.02 0.1 0.03 0.15 0.04 0.02 0 0.05 0.01 0.07 0.01s0.03 0.01 0.05 0.01h0.09 0.12c0.05 0 0.1-0.01 0.14-0.01 0.04-0.01 0.07-0.01 0.11-0.02 0.02-0.01 0.05-0.01 0.08-0.01l0.06-0.03c0.04-0.01 0.08-0.03 0.12-0.05s0.09-0.04 0.13-0.06c0.03-0.02 0.06-0.04 0.1-0.07 0.03-0.03 0.07-0.05 0.11-0.08l0.02-0.02c0.05-0.05 0.1-0.1 0.14-0.16 0.02-0.03 0.03-0.05 0.05-0.08 0.03-0.05 0.06-0.11 0.08-0.16 0.01-0.02 0.02-0.04 0.02-0.05 0.02-0.07 0.04-0.14 0.05-0.21 0-0.03 0.01-0.05 0.01-0.08 0.01-0.06 0.01-0.12 0-0.18v-0.05c0-0.03-0.01-0.07-0.01-0.1-0.01-0.07-0.02-0.14-0.04-0.21 0-0.01-0.01-0.02-0.01-0.04-0.05-0.27-0.14-0.53-0.24-0.79-0.02-0.04-0.03-0.08-0.05-0.12-0.09-0.41-0.17-0.83-0.24-1.25-0.11-0.68-0.21-1.37-0.31-2.05 1.3-0.12 2.6-0.24 3.91-0.36 0.1 0.26 0.2 0.52 0.31 0.77 0.19 0.43 0.38 0.86 0.58 1.28 0.19 0.4 0.4 0.78 0.64 1.16 0.28 0.43 0.61 0.82 0.96 1.19 0.31 0.33 0.63 0.66 1.01 0.92 0.12 0.08 0.24 0.16 0.35 0.24l0.09 0.06c0.31 0.19 0.69 0.28 1.07 0.22 0.3-0.05 0.58-0.18 0.8-0.39 0.27-0.25 0.42-0.6 0.42-0.96 0-0.3-0.11-0.58-0.3-0.81 0 0 0-0.01-0.01-0.01l-0.12-0.12c-0.03-0.03-0.05-0.06-0.08-0.08-0.02-0.01-0.03-0.03-0.05-0.04h-0.01c-0.06-0.05-0.13-0.09-0.2-0.13 0 0-0.01 0-0.01-0.01-0.09-0.06-0.19-0.12-0.28-0.18-0.05-0.03-0.11-0.09-0.15-0.13-0.13-0.12-0.26-0.25-0.38-0.38-0.25-0.26-0.49-0.52-0.69-0.81-0.19-0.27-0.36-0.56-0.51-0.86-0.2-0.39-0.39-0.78-0.57-1.17 0-0.01-0.01-0.01-0.01-0.02 0.32-0.03 0.64-0.06 0.95-0.09l3.66-0.33c0.04 0.22 0.07 0.43 0.11 0.65 0.11 0.54 0.23 1.08 0.37 1.62 0.12 0.45 0.25 0.9 0.39 1.35 0.04 0.13 0.09 0.27 0.14 0.4 0.02 0.05 0.03 0.09 0.05 0.14 0.13 0.32 0.38 0.58 0.73 0.71 0.48 0.18 1.02 0.08 1.39-0.26 0.23-0.21 0.36-0.49 0.38-0.79 0-0.08 0-0.17-0.02-0.25v-0.02c-0.01-0.03-0.01-0.07-0.02-0.1v-0.01-0.01c-0.01-0.02-0.02-0.04-0.03-0.07-0.01-0.04-0.03-0.08-0.04-0.12-0.04-0.12-0.09-0.24-0.13-0.36-0.14-0.4-0.27-0.8-0.38-1.2-0.14-0.49-0.25-0.98-0.36-1.48-0.03-0.14-0.05-0.29-0.08-0.43 0.98-0.09 1.97-0.18 2.95-0.26 0.02 0.41 0.05 0.82 0.08 1.23 0.04 0.54 0.09 1.08 0.17 1.61 0.05 0.34 0.1 0.68 0.16 1.01 0.05 0.24 0.09 0.48 0.17 0.72l0.12 0.33c0.03 0.08 0.07 0.15 0.12 0.22 0.23 0.35 0.63 0.59 1.08 0.62 0.13 0.01 0.26 0 0.39-0.03s0.26-0.08 0.38-0.15c0.05-0.03 0.09-0.07 0.14-0.1 0.01-0.01 0.02-0.02 0.04-0.03 0.05-0.04 0.09-0.08 0.13-0.12 0.03-0.03 0.05-0.06 0.07-0.09 0.03-0.04 0.06-0.07 0.08-0.11 0.03-0.04 0.05-0.09 0.07-0.14 0.01-0.03 0.03-0.07 0.04-0.1 0-0.01 0.01-0.02 0.01-0.03 0.02-0.08 0.04-0.16 0.05-0.24 0.01-0.12 0.02-0.23 0.03-0.35v-0.13c0.01-0.39-0.13-0.77-0.37-1.09-0.01-0.01-0.01-0.02-0.02-0.02-0.03-0.17-0.07-0.34-0.09-0.51-0.08-0.49-0.15-0.99-0.21-1.49-0.05-0.41-0.1-0.82-0.14-1.22 1.09-0.1 2.19-0.19 3.28-0.28 0.01 0.13 0.01 0.26 0.02 0.39 0.03 0.7 0.07 1.4 0.11 2.09 0.02 0.37 0.04 0.74 0.08 1.11 0.04 0.35 0.08 0.7 0.15 1.05 0.06 0.3 0.14 0.61 0.24 0.9 0.1 0.3 0.24 0.59 0.44 0.83 0.01 0.01 0.01 0.02 0.01 0.02 0.02 0.02 0.04 0.05 0.06 0.07 0.05 0.05 0.1 0.09 0.16 0.13l0.01 0.01c0.27 0.19 0.62 0.27 0.96 0.2 0.06-0.01 0.13-0.03 0.18-0.06 0.06-0.02 0.12-0.05 0.17-0.09 0.31-0.19 0.49-0.52 0.5-0.86 0-0.09-0.01-0.19-0.02-0.28-0.02-0.13-0.06-0.26-0.1-0.39-0.1-0.5-0.19-1-0.24-1.51-0.02-0.18-0.19-0.32-0.38-0.3-0.04 0-0.08 0.02-0.12 0.03 0-0.01-0.01-0.03-0.01-0.04-0.07-0.33-0.11-0.67-0.15-1-0.09-0.69-0.17-1.38-0.26-2.06-0.02-0.13-0.03-0.26-0.05-0.4 0.43-0.03 0.85-0.07 1.28-0.1 1.03-0.07 2.05-0.14 3.08-0.2 0.23 0.43 0.47 0.86 0.75 1.27 0.35 0.51 0.76 0.99 1.2 1.43 0.41 0.41 0.83 0.81 1.27 1.18 0.37 0.31 0.7 0.66 1.02 1.01 0.24 0.27 0.51 0.52 0.81 0.73 0.27 0.19 0.57 0.36 0.9 0.42 0.37 0.07 0.73-0.1 0.89-0.42 0.18-0.37 0.15-0.8 0.03-1.18-0.13-0.39-0.36-0.75-0.64-1.07 0 0 0-0.01-0.01-0.01l-0.02-0.02c-0.39-0.43-0.82-0.83-1.28-1.2l-0.01-0.01c-0.01-0.01-0.03-0.02-0.04-0.03-0.41-0.32-0.81-0.66-1.19-1-0.37-0.33-0.73-0.69-1.04-1.07-0.05-0.07-0.1-0.13-0.15-0.2 2.38-0.15 4.76-0.22 7.14-0.29 2.46-0.07 4.92-0.14 7.39-0.21 1.56-0.04 3.13-0.1 4.69-0.16 2.09-0.09 4.19-0.2 6.28-0.32 0.42-0.02 0.73-0.36 0.71-0.75 0.02-0.37-0.29-0.66-0.67-0.68z"/>
</svg>
