<?xml version="1.0" encoding="UTF-8" standalone="no"?>
<!DOCTYPE svg PUBLIC "-//W3C//DTD SVG 1.1//EN" "http://www.w3.org/Graphics/SVG/1.1/DTD/svg11.dtd">
<svg width="100%" height="100%" viewBox="0 0 144 182" version="1.1" xmlns="http://www.w3.org/2000/svg" xmlns:xlink="http://www.w3.org/1999/xlink" xml:space="preserve" xmlns:serif="http://www.serif.com/" style="fill-rule:evenodd;clip-rule:evenodd;stroke-linecap:round;stroke-linejoin:round;stroke-miterlimit:0.726744;">
    <g transform="matrix(1,0,0,1,-197,-19)">
        <g transform="matrix(0.727199,0,0,0.727199,-169.039,-95.7709)">
            <g id="space-skull">
                <g id="skull" transform="matrix(1,0,0,1,114.861,-167.274)">
                    <path d="M584.376,558.355C585.479,558.355 584.197,560.905 584.461,561.434C584.552,561.616 584.399,561.968 584.204,562.033C582.882,562.473 582.984,562.569 582.152,563.401C582.033,563.52 580.932,562.721 580.527,562.802C579.955,562.917 578.78,564.562 578.474,564.257C577.641,563.424 577.455,561.894 575.48,562.289C574.591,562.467 573.458,565.598 572.486,565.112C571.664,564.701 571.326,563.171 569.749,563.487C569.253,563.586 567.858,565.444 567.183,564.77C566.881,564.468 565.991,563.399 565.301,563.743C564.771,564.009 562.93,566.504 562.051,565.625C561.715,565.289 559.61,564.101 559.143,564.257C558.386,564.509 558.288,565.625 557.946,565.796C557.304,566.117 554.996,566.674 554.268,566.309C553.667,566.009 553.483,565.439 553.07,565.026C552.971,564.927 551.704,565.556 551.53,565.625C550.282,566.124 548.57,567.259 547.168,566.908C546.607,566.768 546.161,566.328 545.8,565.967C545.681,565.849 544.535,565.844 544.346,565.796C543.078,565.479 540.685,566.617 539.727,566.138C538.363,565.456 536.884,564.564 535.45,564.085C534.504,563.77 532.459,564.643 531.858,564.342C528.546,562.686 531.225,560.903 530.318,558.184C529.817,556.682 529.238,555.494 528.351,554.164C527.57,552.992 526.184,552.168 525.443,551.426C525.231,551.215 523.948,551.17 523.646,551.084C522.235,550.681 520.414,550.494 519.199,549.887C518.597,549.586 517.468,550.02 516.804,549.887C513.143,549.155 509.566,548.803 505.684,549.288C503.535,549.557 501.543,550.332 499.868,551.17C499.335,551.436 498.674,552.961 498.328,553.479C497.466,554.773 495.883,556.946 494.223,557.499C492.98,557.914 491.526,558.261 490.203,558.526C488.085,558.949 485.466,558.157 483.531,559.125C481.473,560.153 479.593,563.721 476.603,562.974C474.088,562.345 473.28,561.136 471.3,559.552C470.537,558.942 469.299,558.861 468.734,558.013C468.161,557.153 467.935,555.732 467.451,554.762C467.09,554.041 466.195,553.961 465.911,553.394C465.578,552.727 465.083,551.711 464.628,551.255C463.715,550.343 462.294,549.978 461.549,548.86C460.605,547.446 460.272,545.795 459.581,544.413C459.219,543.688 457.443,542.677 457.443,541.847C457.443,541.701 457.109,540.403 457,540.5C456.2,539.221 455.376,538.567 454.535,536.886C454.052,535.919 454.148,534.657 453.68,533.721C453.498,533.359 452.14,532.758 452.14,532.438C452.14,532.429 452.594,532.94 452.739,533.037C453.166,533.322 453.552,533.836 454.022,534.149C455.476,535.118 457.21,535.608 458.897,536.03C459.675,536.225 460.379,535.959 461.121,535.774C461.966,535.562 463.004,535.831 463.858,535.688C465.242,535.458 466.5,534.478 467.964,534.234C468.623,534.124 469.224,534.558 469.845,534.662C471.733,534.976 474.822,535.374 476.603,534.662C478.76,533.799 476.635,531.091 477.372,529.615C477.639,529.083 479.082,528.487 479.596,528.076C480.947,526.995 482.846,526.28 484.044,525.082C485.398,523.728 485.441,523.049 487.38,522.773C488.899,522.556 491.37,523.05 492.598,523.97C493.635,524.748 494.969,526.209 496.275,526.536C497.6,526.867 498.79,525.903 499.953,526.194C501.93,526.688 503.09,527.95 505.342,527.049C506.232,526.693 508.197,525.84 508.507,524.911C508.805,524.017 508.528,521.907 509.362,521.49C511.669,520.336 515.25,519.717 516.804,517.127C517.786,515.49 517.517,513.677 518.429,512.081C519.338,510.491 520.627,510.045 521.08,508.232C522.052,504.343 520.042,502.024 517.06,500.534C516.723,500.365 513.575,498.315 513.575,498.711C513.181,498.809 512.925,497.881 512.698,497.54C511.932,496.391 511.041,495.798 510.046,494.803C509.254,494.01 507.412,494.581 506.796,493.349C506.007,491.771 505.946,489.852 505.171,488.302C504.032,486.025 502.235,484.027 501.408,481.545C500.897,480.014 500.354,478.498 499.611,477.012C499.495,476.779 498.884,475.772 499.184,475.472C499.526,475.13 500.323,475.918 500.552,476.071C501.842,476.931 503.317,477.427 504.743,478.038C506.738,478.893 509.174,480.029 511.415,479.749C512.275,479.641 512.97,478.11 513.468,478.209C514.074,478.331 514.591,479.243 515.093,479.578C516.046,480.213 517.572,480.504 518.685,480.69C522.554,481.335 523.801,476.93 524.331,474.104C524.485,473.281 524.462,471.044 525.357,470.597C525.789,470.381 526.432,471.912 526.555,472.136C527.182,473.286 528.08,473.874 529.377,474.018C531.204,474.221 532.793,475.223 534.595,475.387C536.291,475.541 537.807,474.485 539.556,474.873C541.92,475.399 544.336,476.6 546.741,476.841C547.189,476.886 547.838,476.929 548.28,476.841C552.396,476.018 548.684,470.395 551.702,468.886C553.023,468.225 554.822,471.273 556.491,470.939C557.83,470.671 556.925,469.137 557.518,468.544C557.633,468.429 558.225,469.631 558.288,469.741C558.675,470.419 559.866,471.476 560.768,471.024C561.569,470.624 560.788,468.933 561.11,468.287C561.219,468.07 561.64,468.17 561.795,467.86C562.262,466.925 562.818,467.16 562.992,468.202C563.068,468.659 563.159,469.122 563.249,469.57C563.324,469.949 563.958,470.911 563.958,471L564,471C563.839,471.307 564.187,472.045 564.275,472.222C564.543,472.759 564.757,473.474 565.13,473.847C566.731,475.448 566.583,478.12 567.269,480.177C567.643,481.299 567.327,482.632 567.611,483.769C568.924,489.022 569.759,494.128 573.769,498.139C574.997,499.366 577.134,501.474 577.789,503.442C577.954,503.936 578.508,505.169 578.217,505.751C577.408,507.37 577.201,509.912 576.592,511.739C576.515,511.969 576.161,513.275 576.421,513.535C578.511,515.625 579.18,518.497 579.928,521.49C580.349,523.173 579.507,525.111 579.928,526.793C580.287,528.228 580.593,529.708 580.954,531.155C581.234,532.275 580.843,533.533 581.125,534.662C581.287,535.309 581.518,537.211 581.211,537.827C580.841,538.565 580.2,539.507 579.757,540.393C579.538,540.83 578.342,540.999 577.961,541.761C577.419,542.844 577.523,544.005 577.02,545.011C576.795,545.46 576.713,547.306 576.934,547.748C577.704,549.288 578.384,551.593 579.671,552.881C580.405,553.614 581.291,554.496 581.724,555.361C582.242,556.398 584.376,557.285 584.376,558.355" style="fill:none;stroke:black;stroke-width:2px;"/>
                    <g id="teeth" transform="matrix(1,0,0,1,-0.0678268,-0.509794)">
                        <path d="M582.568,564.01C582.578,563.687 582.889,564.129 582.665,563.743C582.56,563.562 584.21,562.498 584.293,562.51C584.858,562.589 584.803,563.64 584.803,563.914C584.803,565.354 585.145,566.542 585.145,567.935C585.145,568.153 585.284,569.164 585.145,569.303C584.882,569.566 583.712,572.232 582.75,571.27C582.411,570.931 582.862,569.652 583.007,569.218C583.549,567.593 582.75,565.854 582.75,564.342L582.568,564.01Z" style="fill:none;stroke:black;stroke-width:1px;"/>
                        <path d="M582.061,572.342C581.842,572.452 580.077,573.045 579.757,572.724C579.624,572.592 579.757,571.632 579.757,571.441C579.757,570.149 580.27,568.905 580.27,567.592C580.27,566.69 579.881,564.046 580.441,563.487C581.64,562.288 582.323,565.167 582.323,566.138L582.323,568.619C582.323,569.717 582.237,571.152 582.237,572.126L582.061,572.342Z" style="fill:none;stroke:black;stroke-width:1px;"/>
                        <g transform="matrix(1.33469,0,0,1,-192.63,0)">
                            <path d="M578.06,572.933C578.041,572.766 574.76,574.192 574.197,573.067C573.897,572.466 574.56,571.229 574.796,570.757C575.615,569.119 574.285,564.598 575.993,563.743C576.754,563.363 577.314,564.969 577.447,565.369C578.32,567.987 578.559,569.46 578.559,572.382L578.06,572.933Z" style="fill:none;stroke:black;stroke-width:0.85px;"/>
                        </g>
                        <g transform="matrix(1.18761,0,0,1,-107.624,0)">
                            <path d="M569.528,569.864C569.177,568.681 568.715,566.173 569.37,565.148C571.176,562.321 572.357,568.018 573.085,569.474C573.39,570.083 573.879,571.393 573.513,572.126C573.168,572.814 570.968,574.371 570.091,573.494C569.433,572.836 570.152,571.649 569.528,569.864Z" style="fill:none;stroke:black;stroke-width:0.91px;"/>
                        </g>
                        <g transform="matrix(1.17421,0,0,1,-98.4807,0)">
                            <path d="M562.817,568.528C562.885,567.214 565.227,563.926 566.927,565.625C568.184,566.883 567.278,570.167 568.466,571.356C568.535,571.425 568.516,572.453 568.466,572.553C568.115,573.255 566.103,575.408 564.788,574.093C564.342,573.647 563.211,574.446 562.821,573.665C562.164,572.351 562.907,569.739 562.907,568.362L562.817,568.528Z" style="fill:none;stroke:black;stroke-width:0.92px;"/>
                        </g>
                        <g transform="matrix(1.18632,0,0,1,-103.711,0)">
                            <path d="M558.031,566.138C558.727,566.102 558.826,565.723 559.998,566.309C560.472,566.546 560.511,567.418 560.597,567.849C560.881,569.268 560.768,571.113 560.768,572.553C560.768,573.126 560.926,573.758 560.426,574.007C559.949,574.246 558.421,573.457 558.202,573.238C558.003,573.038 557.29,573.352 557.09,573.152C556.639,572.701 557.028,571.427 556.834,570.843C556.777,570.672 556.537,569.087 556.663,568.961C557.019,568.604 557.879,566.745 558.031,566.138" style="fill:none;stroke:black;stroke-width:0.91px;"/>
                        </g>
                        <path d="M553.913,567.133C554.668,566.719 555.252,567.681 555.465,568.533C555.892,570.243 555.821,572.454 554.866,573.409C554.427,573.848 552.982,572.98 552.642,572.81C552.24,572.609 551.626,572.563 551.359,572.297C551.047,571.984 551.292,571.22 551.103,570.843C550.553,569.742 550.53,566.053 552.129,566.053L553.913,567.133Z" style="fill:none;stroke:black;stroke-width:1px;"/>
                        <path d="M548.668,567.224C549.072,566.624 549.799,568.556 549.905,568.875C550.367,570.26 550.423,571.779 549.649,572.553C549.135,573.067 546.684,572.097 546.484,571.698C545.543,569.815 545.985,568.099 547.681,567.25L548.668,567.224Z" style="fill:none;stroke:black;stroke-width:1px;"/>
                        <g transform="matrix(1.161,0,0,1,-87.3241,0)">
                            <path d="M544.532,567.111C544.45,566.484 546.268,572.873 543.918,571.698C542.356,570.917 541.291,566.823 544.26,566.823" style="fill:none;stroke:black;stroke-width:0.92px;"/>
                        </g>
                        <path d="M541.213,567.293C541.888,566.757 541.694,568.862 541.694,569.731C541.694,569.857 541.8,570.737 541.694,570.843C541.483,571.054 540.324,570.928 539.983,570.928C538.406,570.928 536.163,569.845 535.279,568.961C535.119,568.801 535.124,567.662 535.279,567.507C535.544,567.241 535.645,566.798 535.878,566.566C536.424,566.02 539.039,566.634 539.556,566.737L541.213,567.293Z" style="fill:none;stroke:black;stroke-width:1px;"/>
                        <g transform="matrix(1.04861,0,0,1.05747,-25.0143,-31.9349)">
                            <path d="M534.292,565.238C534.491,565.066 534.395,570.273 531.943,569.046C530.417,568.283 529.285,565.888 530.746,564.428L534.292,565.238Z" style="fill:none;stroke:black;stroke-width:0.95px;"/>
                        </g>
                    </g>
                    <g id="texture">
                        <path d="M567.79,520.436C567.185,520.218 567.531,518.434 567.109,517.73C566.519,516.748 565.127,516.275 564.602,515.223C563.645,513.31 562.593,511.155 561.02,509.582C560.586,509.148 558.471,507.206 559.318,506.358C559.576,506.101 560.226,506.232 560.393,505.732C560.593,505.131 560.124,503.851 560.124,503.851C560.124,503.851 562.542,504.308 562.542,503.493" style="fill:none;stroke:black;stroke-width:1px;"/>
                        <path d="M565.453,506.509C565.183,506.674 565.057,505.616 564.96,505.373C564.696,504.713 564.085,504.181 563.885,503.582C563.7,503.027 564.326,502.488 564.154,501.971C563.844,501.042 562.316,500.529 562.005,499.284C561.803,498.476 562.623,497.127 562.005,496.509" style="fill:none;stroke:black;stroke-width:1px;"/>
                        <path d="M529.368,549.678C529.569,549.349 530.255,549.559 530.664,549.518C531.458,549.439 533.671,549.173 534.157,548.444C534.481,547.957 533.565,547.474 533.44,547.101C533.277,546.612 533.476,545.651 533.619,545.22C534.751,541.826 537.663,539.028 540.067,536.624C540.458,536.233 541.03,534.9 541.499,534.744C543.764,533.989 545.836,534.314 548.125,534.027C548.469,533.984 549.321,533.817 549.558,533.58C549.795,533.342 549.654,532.147 550.364,532.147" style="fill:none;stroke:black;stroke-width:1px;"/>
                        <path d="M549.186,536.051C549.287,536.086 548.658,536.323 548.305,536.535C547.709,536.892 546.475,537.597 546.155,538.236C545.879,538.789 545.3,540.644 545.618,541.28C545.779,541.602 547.23,542.428 547.23,542.086" style="fill:none;stroke:black;stroke-width:1px;"/>
                        <path d="M552.019,549.096C551.541,547.82 553.593,546.654 551.08,546.026C550.909,545.983 550.558,545.84 550.364,545.937C549.345,546.446 550.489,547.388 550.185,547.996C549.877,548.612 548.98,548.127 548.663,548.444C548.491,548.615 547.943,550.324 548.215,550.324" style="fill:none;stroke:black;stroke-width:1px;"/>
                        <path d="M548.353,557.046C548.854,557.024 549.12,560.009 549.469,560.532C550.201,561.631 551.899,560.673 551.618,559.547C551.48,558.999 550.722,558.38 550.722,557.846" style="fill:none;stroke:black;stroke-width:1px;"/>
                        <path d="M553.773,557.449C553.721,558.472 553.506,559.783 554.125,560.711C554.53,561.319 556.04,561.592 556.274,560.891C557.098,558.417 553.946,556.027 553.946,553.906" style="fill:none;stroke:black;stroke-width:1px;"/>
                        <path d="M558.316,554.074C557.496,554.131 558.327,556.037 558.513,556.592C558.856,557.624 559.707,559.607 560.662,560.085C562.644,561.076 562.539,558.061 562.094,556.951C561.748,556.084 561.33,555.283 561.02,554.354" style="fill:none;stroke:black;stroke-width:1px;"/>
                        <path d="M564.423,555.121C564.713,555.248 564.832,556.362 564.96,556.682C565.321,557.585 566.133,559.194 566.84,559.547C568.489,560.372 568.385,559.056 567.736,557.756C567.248,556.782 566.84,556.442 566.84,555.339" style="fill:none;stroke:black;stroke-width:1px;"/>
                        <path d="M570.231,555.882C570.262,555.627 570.23,556.196 570.243,556.234C570.405,556.722 570.612,557.253 570.78,557.756C571.015,558.461 572.784,560.23 573.645,559.368C574.69,558.324 572.758,556.259 572.481,555.428C572.35,555.035 572.33,554.292 572.034,553.996C571.928,553.89 571.317,553.415 571.317,553.279" style="fill:none;stroke:black;stroke-width:1px;"/>
                        <path d="M574.882,553.363C574.739,553.198 574.85,554.232 574.899,554.354C575.135,554.943 575.594,555.459 575.974,555.966C576.245,556.327 576.69,556.324 576.959,556.592C577.38,557.013 577.051,558.031 577.317,558.562C577.696,559.321 578.09,559.515 578.749,560.174" style="fill:none;stroke:black;stroke-width:1px;"/>
                        <path d="M581.251,559.659C581.158,559.634 582.264,560.151 582.51,559.906C582.636,559.78 582.907,559.1 582.421,559.1" style="fill:none;stroke:black;stroke-width:1px;"/>
                        <path d="M570.291,548.752C569.471,548.519 575.705,547.518 575.705,549.608" style="fill:none;stroke:black;stroke-width:1px;"/>
                        <path d="M562.833,544.367C561.841,543.994 560.917,539.963 561.378,539.042C561.557,538.684 561.908,538.43 562.094,538.057C562.33,537.585 562.317,536.356 562.9,536.356" style="fill:none;stroke:black;stroke-width:1px;"/>
                        <path d="M565.644,546.625C565.892,546.155 567.022,547.013 567.377,547.19" style="fill:none;stroke:black;stroke-width:1px;"/>
                        <path d="M564.08,533.577C564.57,533.003 564.603,531.697 564.96,530.983C565.302,530.299 566.124,529.123 566.124,528.386" style="fill:none;stroke:black;stroke-width:1px;"/>
                        <path d="M550.929,530.096C550.811,529.675 551.349,528.95 551.349,528.386" style="fill:none;stroke:black;stroke-width:1px;"/>
                        <path d="M553.157,530.594C553.095,530.065 554.397,529.071 555.11,528.834C555.355,528.752 555.399,529.316 555.826,529.102C556.594,528.719 556.5,527.377 557.348,526.953C557.813,526.721 558.489,526.741 558.96,526.506C560.566,525.703 559.434,522.745 561.915,522.745" style="fill:none;stroke:black;stroke-width:1px;"/>
                        <path d="M523.381,510.181C523.46,510.022 523.232,509.671 523.232,509.671C523.232,509.671 524.36,510.107 524.934,510.298C525.43,510.464 526.324,510.077 526.724,510.477C526.889,510.642 526.796,510.961 527.083,511.104C527.357,511.241 527.579,510.884 527.799,511.104" style="fill:none;stroke:black;stroke-width:1px;"/>
                        <path d="M539.342,499.987C538.14,500.085 540.703,498.634 540.962,498.478C542.724,497.421 544.409,497.252 546.335,496.867" style="fill:none;stroke:black;stroke-width:1px;"/>
                        <path d="M541.701,496.184C541.539,495.313 545.072,494.81 545.708,494.628" style="fill:none;stroke:black;stroke-width:1px;"/>
                        <path d="M551.366,495.731C550.37,493.787 550.191,496.873 550.991,497.673" style="fill:none;stroke:black;stroke-width:1px;"/>
                        <path d="M552.575,493.699C552.625,493.598 552.677,494.181 552.692,494.27C552.751,494.623 552.89,494.989 552.961,495.344C553.173,496.406 552.961,497.291 552.961,498.299" style="fill:none;stroke:black;stroke-width:1px;"/>
                        <path d="M554.949,491.74C554.624,493.73 555.558,496.069 555.558,497.852" style="fill:none;stroke:black;stroke-width:1px;"/>
                        <path d="M556.644,495.101C556.898,495.603 556.857,497 556.453,497.404" style="fill:none;stroke:black;stroke-width:1px;"/>
                        <path d="M561.422,491.477C561.414,491.464 562.246,492.411 562.452,492.927" style="fill:none;stroke:black;stroke-width:1px;"/>
                        <path d="M565.976,492.748C566.436,493.454 566.124,495.027 566.124,495.882" style="fill:none;stroke:black;stroke-width:1px;"/>
                        <path d="M567.801,493.805C568.09,493.848 567.915,496.055 567.915,496.419" style="fill:none;stroke:black;stroke-width:1px;"/>
                        <path d="M569.794,497.004C568.737,496.722 569.4,498.505 570.064,498.837" style="fill:none;stroke:black;stroke-width:1px;"/>
                        <path d="M567.256,499.178C567.559,499.22 567.288,500.462 567.288,500.717" style="fill:none;stroke:black;stroke-width:1px;"/>
                        <path d="M564.124,498.845C564.277,498.834 565.139,501.974 565.139,502.329" style="fill:none;stroke:black;stroke-width:1px;"/>
                        <path d="M560.071,500.163C560.165,500.035 559.139,501.048 559.139,501.613" style="fill:none;stroke:black;stroke-width:1px;"/>
                        <path d="M556.05,502.385C555.009,503.163 553.197,504.999 555.02,505.911" style="fill:none;stroke:black;stroke-width:1px;"/>
                        <path d="M556.845,504.394C556.65,505.386 556.184,506.058 556.184,507.164" style="fill:none;stroke:black;stroke-width:1px;"/>
                        <path d="M558.35,506.045C557.94,506.218 557.707,506.4 557.707,506.896" style="fill:none;stroke:black;stroke-width:1px;"/>
                        <path d="M561.459,506.689C561.425,506.662 561.608,506.691 561.915,506.537C562.265,506.363 563.527,505.504 563.527,505.105C563.527,504.638 562.751,505.642 562.452,506C561.995,506.549 559.966,508.663 561.378,509.134" style="fill:none;stroke:black;stroke-width:1px;"/>
                        <path d="M564.625,506.736C564.684,506.729 561.818,508.142 563.258,509.582" style="fill:none;stroke:black;stroke-width:1px;"/>
                        <path d="M565.823,508.281C565.203,508.482 564.87,509.09 564.87,509.761" style="fill:none;stroke:black;stroke-width:1px;"/>
                        <path d="M560.713,510.287C560.781,510.293 559.932,511.254 559.766,511.552C559.275,512.436 558.616,513.842 559.766,514.417" style="fill:none;stroke:black;stroke-width:1px;"/>
                        <path d="M562.194,511.868C562.148,511.267 561.688,513.329 561.647,513.522C561.404,514.656 560.93,516.23 560.93,517.372" style="fill:none;stroke:black;stroke-width:1px;"/>
                        <path d="M563.273,514.756C563.11,515.953 562.791,517.431 562.363,518.715" style="fill:none;stroke:black;stroke-width:1px;"/>
                        <path d="M479.684,532.914C479.717,532.761 479.054,531.716 479.266,531.61C480.622,530.932 484.062,532.805 485.176,533.49C486.053,534.03 486.682,534.792 487.057,535.729C487.274,536.271 486.945,536.954 487.325,537.43C488,538.274 490.092,538.306 491.086,538.505C491.602,538.608 492.096,539.153 492.698,538.952C493.648,538.636 494.538,537.45 495.474,536.982C496.756,536.341 498.279,535.741 499.414,534.833C500.133,534.257 500.64,533.44 501.563,533.132C503.138,532.607 504.892,532.994 506.488,532.595C508.248,532.154 509.972,531.074 511.771,530.625C512.322,530.487 513.024,530.804 513.562,530.625C514.495,530.314 515.767,529.029 516.516,528.386C516.84,528.109 518.845,526.685 518.576,526.148C518.361,525.718 517.763,525.768 517.591,525.252C517.303,524.388 517.143,523.251 517.143,522.297C517.143,521.936 517.075,520.775 517.501,520.775" style="fill:none;stroke:black;stroke-width:1px;"/>
                        <path d="M474.443,539.711C474.225,540.004 474.073,540.743 474.073,540.743L474.073,539.669C474.073,538.999 474.114,538.446 474.52,537.878C475.396,536.653 477.479,535.581 478.998,536.087C479.99,536.418 481.333,536.835 482.132,537.52C482.809,538.1 482.838,538.714 483.296,539.4C484.027,540.498 485.645,540.575 486.698,541.101C487.166,541.335 487.519,541.803 488.042,541.907C489.372,542.173 488.705,540.327 490.012,540.654C490.396,540.75 490.836,541.367 491.176,541.639C491.706,542.063 492.392,542.318 492.877,542.803C493.25,543.175 492.899,543.922 493.146,544.414C493.571,545.265 494.838,545.897 495.742,546.026C496.5,546.135 497.884,546.158 498.339,545.399C498.47,545.182 498.594,543.712 498.429,543.877C498.231,544.075 499.717,544.552 499.861,544.594C500.57,544.796 501.816,545.643 502.548,545.399C502.988,545.253 503.219,544.549 503.533,544.235C504.25,543.518 504.946,543.081 505.861,542.624C506.108,542.5 506.608,542.102 506.935,542.265C508.965,543.28 510.476,545.231 512.397,546.384C514.32,547.538 517.462,547.364 519.651,547.638C520.341,547.724 521.824,547.068 522.247,547.28C523.651,547.982 524.719,549.048 526.366,549.518C527.116,549.733 527.424,548.802 528.157,548.802" style="fill:none;stroke:black;stroke-width:1px;"/>
                        <path d="M486.646,543.334C487.374,543.412 486.843,546.105 486.788,546.653C486.693,547.603 486.441,549.111 485.803,549.877C485.537,550.196 485.272,550.358 484.908,550.503C484.86,550.522 484.263,550.522 484.37,550.414C484.373,550.411 485.402,551.564 485.713,551.668C486.757,552.015 488.032,549.642 488.221,548.981C488.322,548.625 488.399,547.728 488.847,547.728" style="fill:none;stroke:black;stroke-width:1px;"/>
                        <path d="M466.048,548.408C468.088,550.185 469.154,553.119 472.192,553.727C473.094,553.907 475.139,553.643 475.864,553.1C476.106,552.918 477.214,551.317 477.386,551.488C479.171,553.273 481.018,555.16 483.833,555.16" style="fill:none;stroke:black;stroke-width:1px;"/>
                        <path d="M462.726,538.854C462.219,538.497 463.774,538.564 463.954,538.594C464.969,538.763 466.365,539.318 466.999,540.206C467.443,540.828 467.563,541.725 467.984,542.355C468.534,543.181 470.368,543.236 471.207,543.609C472.61,544.232 473.373,545.676 474.789,546.384C475.227,546.603 476.571,546.752 476.938,546.384C477.246,546.076 476.401,545.31 476.669,545.041C477.087,544.624 478.062,546.026 477.744,546.026" style="fill:none;stroke:black;stroke-width:1px;"/>
                        <path d="M528.148,544.348C529.945,543.567 532.329,545.187 534.068,545.187" style="fill:none;stroke:black;stroke-width:1px;"/>
                        <path d="M532.487,543.315C533.242,543.332 533.883,543.648 534.618,543.648" style="fill:none;stroke:black;stroke-width:1px;"/>
                        <path d="M530.274,539.801C531.349,539.801 534.743,541.127 536.047,541.779" style="fill:none;stroke:black;stroke-width:1px;"/>
                        <path d="M534.425,538.794C534.912,538.895 535.686,539.471 536.376,539.471" style="fill:none;stroke:black;stroke-width:1px;"/>
                        <path d="M537.624,536.445C537.483,537.066 538.665,537.163 539.124,537.163" style="fill:none;stroke:black;stroke-width:1px;"/>
                        <path d="M539.241,534.971C539.211,535.429 540.006,535.624 540.333,535.624" style="fill:none;stroke:black;stroke-width:1px;"/>
                        <path d="M539.823,531.148C539.447,531.07 540.672,531.814 540.773,531.886C541.311,532.271 541.944,532.876 542.642,532.876" style="fill:none;stroke:black;stroke-width:1px;"/>
                        <path d="M542.691,531.031C542.799,531.575 543.703,532.326 544.29,532.326" style="fill:none;stroke:black;stroke-width:1px;"/>
                        <path d="M544.804,530.77C544.977,531.376 545.814,531.777 546.379,531.777" style="fill:none;stroke:black;stroke-width:1px;"/>
                        <path d="M546.49,529.997C546.946,530.026 547.937,530.367 548.248,530.677" style="fill:none;stroke:black;stroke-width:1px;"/>
                        <path d="M548.557,529.705C548.938,529.852 549.416,530.567 549.786,530.567" style="fill:none;stroke:black;stroke-width:1px;"/>
                        <path d="M523.405,507.066C523.397,507.072 523.567,504.946 523.406,504.517C522.807,502.919 521.5,500.816 519.889,500.01" style="fill:none;stroke:black;stroke-width:1px;"/>
                        <path d="M525.458,504.122C525.495,504.301 524.966,501.746 524.395,500.889C523.483,499.521 519.999,497.887 519.999,496.163" style="fill:none;stroke:black;stroke-width:1px;"/>
                        <path d="M527.144,502.531C527.143,502.678 527.211,500.905 526.813,500.01C526.514,499.336 523.076,495.77 523.076,497.372" style="fill:none;stroke:black;stroke-width:1px;"/>
                        <path d="M529.779,501.8C529.243,501.646 528.999,498.789 528.242,498.032" style="fill:none;stroke:black;stroke-width:1px;"/>
                        <path d="M518.03,498.272C517.307,498.148 517.152,498.153 516.591,497.592" style="fill:none;stroke:black;stroke-width:1px;"/>
                        <path d="M529.751,551.394C528.735,551.118 533.165,552.091 533.958,551.562C535.746,550.37 536.056,550.472 537.585,552.001C537.737,552.153 538.245,552.196 538.245,552.331" style="fill:none;stroke:black;stroke-width:1px;"/>
                        <path d="M538.325,552.386C538.335,552.368 538.345,552.35 538.355,552.331" style="fill:none;stroke:black;stroke-width:1px;"/>
                        <path d="M539.663,554.354C539.287,554.185 540.142,555.328 540.223,555.409C540.793,555.978 541.351,556.634 541.652,557.387C542.361,559.159 542.399,561.057 542.971,562.773C543.096,563.146 543.006,564.11 543.411,564.312C543.717,564.465 543.741,563.959 543.741,563.763" style="fill:none;stroke:black;stroke-width:1px;"/>
                        <path d="M530.989,553.235C531.679,553.086 532.084,554.946 532.199,555.409C532.716,557.473 533.189,559.698 533.189,561.784" style="fill:none;stroke:black;stroke-width:1px;"/>
                        <path d="M533.61,553.86C533.48,553.725 533.037,552.53 533.299,552.661C534.345,553.184 534.586,555.786 535.057,556.728" style="fill:none;stroke:black;stroke-width:1px;"/>
                        <path d="M536.373,558.658C536.403,559.937 536.775,561.481 537.366,562.664" style="fill:none;stroke:black;stroke-width:1px;"/>
                        <path d="M536.666,553.743C535.827,553.823 536.643,555.173 536.926,555.739C538.019,557.924 538.231,560.438 539.234,562.444" style="fill:none;stroke:black;stroke-width:1px;"/>
                        <path d="M539.182,557.521C540.004,558.862 540.553,560.654 540.553,562.224" style="fill:none;stroke:black;stroke-width:1px;"/>
                        <path d="M487.536,527.751C485.984,526.877 490.599,528.355 491.2,528.589C493.648,529.541 496.705,530.443 498.784,532.106C498.904,532.202 500.084,533.301 500.433,531.557C500.536,531.04 500.412,530.539 500.103,530.128C499.963,529.94 499.554,529.453 499.554,529.688C499.554,530.565 502.035,531.626 502.522,530.897C502.998,530.183 500.873,528.919 500.873,528.919C500.873,528.919 502.691,530.098 503.511,529.688C503.972,529.457 503.401,528.619 503.401,528.479" style="fill:none;stroke:black;stroke-width:1px;"/>
                        <path d="M482.399,527.895C482.441,527.458 483.377,528.337 484.385,528.589C484.825,528.699 486.157,528.919 485.704,528.919L483.945,528.919C483.572,528.919 480.69,528.825 480.978,529.688C481.216,530.404 484.825,530.085 484.825,530.458L482.956,530.458C482.271,530.458 479.749,530.488 481.637,531.117" style="fill:none;stroke:black;stroke-width:1px;"/>
                        <path d="M503.899,538.502C503.261,538.277 503.789,538.931 504.39,538.811C504.749,538.74 508.217,537.382 507.138,537.382" style="fill:none;stroke:black;stroke-width:1px;"/>
                        <path d="M508.078,538.588C507.614,536.923 509.143,539.641 510.546,539.361C511.124,539.245 511.046,538.372 511.205,538.372" style="fill:none;stroke:black;stroke-width:1px;"/>
                        <path d="M522.837,536.386C523.317,535.596 525.672,535.379 525.385,535.953C525.106,536.511 524.06,536.948 523.626,537.382C522.477,538.531 522.497,539.581 520.218,539.581" style="fill:none;stroke:black;stroke-width:1px;"/>
                        <path d="M546.678,488.891C546.707,488.702 546.595,488.033 546.269,488.359C546.026,488.602 546.819,489.006 546.819,489.238" style="fill:none;stroke:black;stroke-width:1px;"/>
                        <path d="M536.927,495.033C536.921,494.614 537.29,494.649 537.695,494.514" style="fill:none;stroke:black;stroke-width:1px;"/>
                        <path d="M474.348,556.56C474.854,556.379 474.032,556.907 474.492,557.827C474.963,558.768 476.981,558.299 477.24,558.816C477.506,559.348 476.698,561.125 477.13,561.125" style="fill:none;stroke:black;stroke-width:1px;"/>
                        <path d="M478.876,555.464C478.905,555.103 479.32,556.42 479.439,556.618C480.023,557.592 481.021,557.915 482.077,558.047" style="fill:none;stroke:black;stroke-width:1px;"/>
                        <path d="M469.982,555.361C470.029,554.633 470.882,555.225 471.525,555.409" style="fill:none;stroke:black;stroke-width:1px;"/>
                        <path d="M470.609,556.91C470.719,556.69 470.936,556.954 472.294,557.497" style="fill:none;stroke:black;stroke-width:1px;"/>
                        <path d="M470.302,558.092C470.998,557.958 471.698,558.267 472.404,558.267" style="fill:none;stroke:black;stroke-width:1px;"/>
                        <path d="M470.591,546.873C469.784,546.689 471.293,547.08 472.074,547.275" style="fill:none;stroke:black;stroke-width:1px;"/>
                        <path d="M470.316,548.711C470.848,548.677 471.337,548.814 471.854,548.814" style="fill:none;stroke:black;stroke-width:1px;"/>
                        <path d="M469.849,550.198C470.366,550.367 470.962,550.463 471.525,550.463" style="fill:none;stroke:black;stroke-width:1px;"/>
                        <path d="M458.586,537.348C457.645,537.576 460.405,539.16 460.533,539.801C460.726,540.768 459.778,542.029 460.203,542.878C460.672,543.816 463.547,546.506 464.71,546.506" style="fill:none;stroke:black;stroke-width:1px;"/>
                        <path d="M547.388,538.499C547.216,537.582 546.965,538.975 546.817,539.271C546.619,539.666 547.005,540.151 547.152,540.445C547.22,540.58 547.668,541.103 547.935,540.836C548.799,539.971 548.426,539.079 547.991,538.209C547.912,538.052 548.056,537.147 548.214,537.147C548.316,537.147 547.941,537.859 547.935,537.874C547.72,538.412 547.567,538.952 547.432,539.495C547.388,539.671 547.473,540.201 547.767,540.054C547.918,539.978 547.823,539.194 547.823,539.048C547.823,538.18 547.587,537.551 548.158,536.98" style="fill:none;stroke:black;stroke-width:1px;"/>
                        <path d="M553.39,539.715C552.871,539.768 553.165,541.279 553.244,541.674C553.505,542.979 553.997,544.207 554.25,545.475C554.341,545.93 554.921,547.389 554.921,546.984" style="fill:none;stroke:black;stroke-width:1px;"/>
                        <path d="M553.9,540.078C553.602,539.901 553.692,540.452 553.747,540.892C553.865,541.834 554.132,542.811 554.642,543.575C554.752,543.741 554.907,544.525 555.145,544.525" style="fill:none;stroke:black;stroke-width:1px;"/>
                        <path d="M554.502,539.982C554.426,539.946 555.57,541.553 555.704,541.954C555.795,542.227 556.045,544.581 556.318,544.581" style="fill:none;stroke:black;stroke-width:1px;"/>
                        <path d="M553.257,539.226C553.44,539.181 552.904,538.212 552.35,538.489C551.851,538.738 551.337,538.939 550.785,539.215C550.669,539.273 550.282,539.216 550.282,539.103" style="fill:none;stroke:black;stroke-width:1px;"/>
                        <path d="M555.114,535.65C554.643,535.58 555.668,536.187 556.095,535.974C556.813,535.614 556.486,534.604 556.765,534.465" style="fill:none;stroke:black;stroke-width:1px;"/>
                        <path d="M558.246,536.059C558.125,535.677 558.497,535.905 558.889,535.415C558.942,535.349 559.293,534.365 559.448,534.52C559.712,534.784 558.666,535.973 559.001,535.638" style="fill:none;stroke:black;stroke-width:1px;"/>
                        <path d="M560.156,536.059C559.729,536.359 560.529,535.363 560.622,535.247C560.704,535.144 560.901,534.836 560.901,534.968C560.901,535.327 560.688,536.05 560.845,536.365C560.911,536.497 561.851,535.08 561.851,535.974" style="fill:none;stroke:black;stroke-width:1px;"/>
                        <path d="M559.986,538.588C559.811,538.719 559.679,539.048 559.839,539.048" style="fill:none;stroke:black;stroke-width:1px;"/>
                        <path d="M561.615,533.738C561.633,533.584 561.598,533.459 561.628,533.459" style="fill:none;stroke:black;stroke-width:1px;"/>
                        <path d="M559.728,551.078C559.663,551.038 559.56,550.939 559.56,551.064" style="fill:none;stroke:black;stroke-width:1px;"/>
                        <path d="M555.981,549.298C556.041,550.326 556.915,552.267 557.492,553.132" style="fill:none;stroke:black;stroke-width:1px;"/>
                        <path d="M554.264,551.544C554.524,552.369 555.151,553.306 555.759,553.914" style="fill:none;stroke:black;stroke-width:1px;"/>
                        <path d="M552.274,554.052C552.356,553.718 553.389,555.545 553.636,556.038" style="fill:none;stroke:black;stroke-width:1px;"/>
                        <path d="M561.591,549.579C561.521,549.504 561.301,549.331 561.404,549.331C561.552,549.331 561.842,549.792 561.907,549.89C562.36,550.569 562.728,551.253 563.081,551.958" style="fill:none;stroke:black;stroke-width:1px;"/>
                        <path d="M562.207,546.635C561.924,546.687 562.622,548.166 562.69,548.325C563.296,549.74 563.908,551.208 564.59,552.573" style="fill:none;stroke:black;stroke-width:1px;"/>
                        <path d="M564.797,548.622C564.363,548.543 565.061,550.361 565.317,550.617" style="fill:none;stroke:black;stroke-width:1px;"/>
                        <path d="M565.669,548.748C565.624,549.262 565.699,549.872 565.931,550.337" style="fill:none;stroke:black;stroke-width:1px;"/>
                        <path d="M567.535,550.685C567.545,550.611 567.459,550.281 567.44,550.337C567.198,551.063 567.834,552.579 568.055,553.244C568.104,553.389 568.67,554.572 568.67,554.473" style="fill:none;stroke:black;stroke-width:1px;"/>
                        <path d="M569.303,551.818C569.198,551.699 569.857,553.955 570.011,554.417" style="fill:none;stroke:black;stroke-width:1px;"/>
                        <path d="M569.045,548.177C568.833,548.073 569.277,548.477 569.397,548.717C569.702,549.328 569.899,549.957 570.235,550.561" style="fill:none;stroke:black;stroke-width:1px;"/>
                        <path d="M579.059,531.572C578.961,531.656 578.842,532.023 578.842,531.894C578.842,531.279 579.961,530.215 580.239,529.658" style="fill:none;stroke:black;stroke-width:1px;"/>
                        <path d="M577.987,536.073C578.657,534.332 579.756,532.506 580.798,530.943" style="fill:none;stroke:black;stroke-width:1px;"/>
                        <path d="M578.148,538.083C577.747,538.278 578.752,536.819 578.954,536.477C579.551,535.461 580.07,534.075 580.91,533.235" style="fill:none;stroke:black;stroke-width:1px;"/>
                        <path d="M579.327,538.12C579.474,538.385 579.479,537.526 579.624,537.259C579.854,536.838 580.153,536.436 580.407,536.029" style="fill:none;stroke:black;stroke-width:1px;"/>
                        <path d="M559.187,529.057C559.103,528.978 559.001,528.764 559.001,528.764C559.001,528.764 559.415,529.357 559.616,529.658C559.954,530.165 560.252,530.699 560.566,531.223" style="fill:none;stroke:black;stroke-width:1px;"/>
                        <path d="M563.982,521.13C563.832,521.075 564.569,522.071 564.646,522.225" style="fill:none;stroke:black;stroke-width:1px;"/>
                        <path d="M564.56,520.647C564.453,520.933 565.239,521.511 565.373,521.777" style="fill:none;stroke:black;stroke-width:1px;"/>
                        <path d="M564.914,519.179C565.42,520.403 566.694,522.148 567.664,523.119" style="fill:none;stroke:black;stroke-width:1px;"/>
                        <path d="M535.953,545.871C535.535,545.847 536.306,544.597 536.477,544.189C537.2,542.472 538.014,541.116 539.104,539.662" style="fill:none;stroke:black;stroke-width:1px;"/>
                        <path d="M536.478,546.947C536.268,546.876 536.659,546.118 536.701,546.034C537.156,545.124 537.695,544.233 538.21,543.351" style="fill:none;stroke:black;stroke-width:1px;"/>
                        <path d="M537.375,547.852C537.269,547.899 538.067,546.358 538.154,546.201" style="fill:none;stroke:black;stroke-width:1px;"/>
                        <path d="M538.484,548.675C537.957,549.116 538.939,547.752 539.048,547.599" style="fill:none;stroke:black;stroke-width:1px;"/>
                        <path d="M539.786,549.639C539.38,549.47 539.76,549.015 539.998,548.717" style="fill:none;stroke:black;stroke-width:1px;"/>
                        <path d="M540.49,544.195C540.357,544.336 540.247,544.774 540.11,544.637C540.006,544.532 540.519,543.804 540.557,543.742C541.108,542.848 541.57,541.928 542.178,541.06" style="fill:none;stroke:black;stroke-width:1px;"/>
                        <path d="M541.023,545.753C540.893,545.376 541.374,544.697 541.563,544.413" style="fill:none;stroke:black;stroke-width:1px;"/>
                        <path d="M541.822,546.865C542.029,546.581 542.24,546.133 542.402,545.81" style="fill:none;stroke:black;stroke-width:1px;"/>
                        <path d="M540.972,551.471C540.499,552.284 541.164,550.659 541.284,550.449" style="fill:none;stroke:black;stroke-width:1px;"/>
                        <path d="M541.564,552.805C541.563,552.516 541.542,552.279 541.675,552.014" style="fill:none;stroke:black;stroke-width:1px;"/>
                        <path d="M545.063,556.358C544.982,556.221 544.861,555.926 544.861,555.926C544.861,555.926 544.984,556.457 545.084,556.709C545.295,557.235 545.511,557.736 545.699,558.274C546.157,559.583 546.76,560.896 547.096,562.242" style="fill:none;stroke:black;stroke-width:1px;"/>
                        <path d="M544.413,558.183C544.742,558.386 544.892,559.53 544.973,559.895C545.263,561.202 545.956,563.013 545.308,564.31" style="fill:none;stroke:black;stroke-width:1px;"/>
                        <path d="M547.589,563.849C547.437,563.896 547.863,565.869 547.935,566.154" style="fill:none;stroke:black;stroke-width:1px;"/>
                        <path d="M548.905,564.575C548.631,564.424 549.098,565.172 549.164,565.372" style="fill:none;stroke:black;stroke-width:1px;"/>
                        <path d="M578.453,555.394C577.989,555.184 577.982,554.731 577.78,554.194C577.238,552.748 577.109,551.486 577.109,549.946" style="fill:none;stroke:black;stroke-width:1px;"/>
                        <path d="M581.5,557.952C581.212,557.825 581.101,557.124 580.966,556.765C580.477,555.462 580.075,554.2 579.457,552.964" style="fill:none;stroke:black;stroke-width:1px;"/>
                        <path d="M530.864,527.466C530.137,526.6 527.667,526.381 527.667,524.508" style="fill:none;stroke:black;stroke-width:1px;"/>
                        <path d="M526.906,515.836C525.907,516.082 526.89,512.786 527.136,512.293" style="fill:none;stroke:black;stroke-width:1px;"/>
                        <path d="M528.716,510.409C528.162,510.525 529.929,508.127 530.19,507.779" style="fill:none;stroke:black;stroke-width:1px;"/>
                        <path d="M533.537,526.022C532.266,525.596 536.914,528.003 537.891,528.491" style="fill:none;stroke:black;stroke-width:1px;"/>
                        <path d="M507.723,541.436C507.189,539.731 510.557,543.246 511.204,543.893C511.735,544.424 513.554,544.251 514.125,544.822C514.633,545.331 515.447,546.011 516.116,546.681C516.36,546.924 517.098,546.6 517.444,546.946" style="fill:none;stroke:black;stroke-width:1px;"/>
                    </g>
                    <g id="sockets">
                        <path d="M529.103,513.848C528.939,512.168 530.397,511.117 531.055,509.799C531.681,508.547 532.861,507.713 533.862,506.712C536.599,503.975 540.042,501.985 543.497,500.258C544.501,499.756 548.273,497.738 549.39,498.855C550.917,500.382 552.064,501.825 552.851,504.187C553.327,505.615 552.658,507.357 553.319,508.677C553.791,509.622 554.926,510.115 555.377,511.015C556.022,512.306 556.714,514.317 557.622,515.225C558.038,515.641 557.874,517.039 558.183,517.657C558.607,518.505 557.663,519.633 557.341,520.276C556.071,522.817 552.269,524.87 549.483,526.263C542.029,529.99 535.217,526.574 530.775,520.65C529.66,519.165 529.553,517.458 528.81,515.973C528.341,515.035 529.465,514.091 529.465,513.448" style="fill:black;stroke:black;stroke-width:1px;"/>
                        <path d="M576.735,540.487C576.64,540.183 576.69,542.288 576.517,542.633C575.945,543.778 575.095,544.373 573.898,544.972C573.474,545.184 571.861,544.67 571.653,544.878C571.575,544.956 574.092,545.433 573.243,546.281C572.947,546.578 571.221,546.205 570.998,546.094C568.8,544.995 567.232,545.917 565.666,543.568C564.625,542.006 564.916,539.458 565.479,537.769C567.164,532.715 568.096,526.546 571.56,523.083C571.876,522.766 571.431,521.281 571.653,520.837C572.144,519.856 573.263,517.507 574.459,516.909C577.44,515.418 577.079,520.236 577.079,521.866C577.079,527.994 576.424,534.359 576.424,540.107" style="fill:black;stroke:black;stroke-width:1px;"/>
                        <path d="M574.89,511.458C574.888,511.446 572.828,510.855 572.401,510.712C570.459,510.065 567.369,509.202 566.413,507.291C566.048,506.561 567.321,505.133 567.611,504.554C568.014,503.748 566.392,504.083 566.841,503.185C567.234,502.4 568.376,501.741 568.808,500.876C568.929,500.635 568.825,499.662 568.979,499.507C569.014,499.473 569.528,499.482 569.578,499.507C570.511,499.974 571.508,500.753 572.144,501.389C572.607,501.851 573.423,501.812 573.855,502.244C574.702,503.091 574.743,504.105 575.223,505.067C575.391,505.401 576.083,507.544 575.651,507.975C575.433,508.193 575.646,509.007 575.394,509.258C575.063,509.59 574.454,510.749 574.454,511.311" style="fill:black;stroke:black;stroke-width:1px;"/>
                    </g>
                </g>
                <g id="starfield">
                    <path d="M567.088,365.5C569.152,363.436 563.968,362.596 563.5,362.5C562.046,362.201 554.842,362.144 554,356C553.26,350.599 559.41,346.393 562.547,342.568C570.146,333.305 556.434,331.453 555.079,327.389C552.883,320.802 562.773,319.489 557.565,312.737C553.628,307.633 541.988,315.615 535.743,317.266C523.293,320.557 518.129,305.078 526.937,297.262C537.3,288.065 550.142,269.065 522.617,266.166C504.366,264.244 496.864,241.951 512,235.087C534.803,224.745 532.327,211.684 522.505,206.528C512.073,201.052 504.135,188.559 519,174C529.473,163.743 539.836,160.263 550,160C557.935,159.795 570.135,165.793 581,165C591.557,164.229 605.604,153.01 612,164C618.37,174.946 607.825,182.782 603,189C594.561,199.875 603.518,201.909 611,201C620.513,199.844 635.993,199.912 640,208C645.53,219.161 635.023,225.734 641,234C644.67,239.075 651.555,227.312 658,234C660.601,236.699 661.78,240.313 660,244C657.431,249.323 663.406,246.662 668,254C672.24,260.774 667.059,264.698 673,273C680.011,282.798 681.398,291.192 677.174,299.939C676.841,300.629 675.805,300.297 675.952,302.663C676.056,304.357 674.85,304.357 673.746,302.92C670.788,299.073 672.598,303.589 671.452,303.723C670.503,303.835 670.068,303.58 668.97,302.699C667.469,301.494 666.089,300.261 665.341,303.675C665.11,304.726 665.334,307.577 665.189,308.012C665.017,308.527 663.912,310.448 660.11,309.366C656.331,308.29 655.059,307.266 651.983,307.821C648.258,308.492 643.511,307.264 641.732,305.278C639.499,302.784 639.753,302.889 639.18,306.609C638.784,309.181 638.074,312.159 635.428,313.237C634.268,313.709 631.513,313.556 630.522,312.602C628.374,310.537 628.477,310.661 626.576,312.366C625.916,312.957 623.643,312.488 617.441,309.784C613.418,308.031 613.898,308.609 614.614,310.138C615.418,311.855 617.411,317.178 619.218,319.862C621.126,322.695 620.295,325.862 621.993,326.471C626.739,328.175 627.003,331.532 634.18,334.797C635.519,335.407 637.723,338.142 635.388,342.054C634.939,342.808 633.773,343.692 633.324,344.59C632.539,346.16 633.006,350.126 628.648,352.502C625.884,354.009 624.454,352.577 623.516,356.332C622.492,360.429 619.125,360.448 614.838,359.047C613.168,358.501 611.845,360.418 609.947,358.76C607.885,356.957 604.103,354.039 600.913,356.05C598.595,357.512 594.899,360.429 592.85,361.822C590.705,363.28 593.803,367.033 591.157,367.501C582.096,369.105 587.051,365.474 577.539,368.516C572.148,370.241 567.069,365.392 567.089,365.505L567.088,365.5Z" style="fill:black;fill-opacity:0.5;stroke:black;stroke-width:1px;"/>
                    <path d="M614,245C614,245 623.932,238.629 632,237" style="fill:none;stroke:black;stroke-width:1px;"/>
                    <path d="M600,243.343C600,258.056 587.693,270 572.533,270C557.374,270 545.066,258.056 545.066,243.343C545.066,228.631 557.374,216.687 572.533,216.687C587.693,216.687 600,228.631 600,243.343ZM600,243.343C600,229.545 588.798,218.343 575,218.343C561.202,218.343 550,229.545 550,243.343C550,257.141 561.202,268.343 575,268.343C588.798,268.343 600,257.141 600,243.343Z" style="fill:black;stroke:black;stroke-width:1px;"/>
                    <g transform="matrix(1,0,0,1,0,-0.5)">
                        <circle cx="575.5" cy="295.5" r="14.5" style="fill:black;stroke:black;stroke-width:1px;"/>
                    </g>
                    <g transform="matrix(1,0,0,1,-2.5,0)">
                        <path d="M591.92,290.93C596.857,291.664 600,292.767 600,294C600,295.195 597.044,296.269 592.363,297.002C588.398,297.623 583.194,298 577.5,298C572.282,298 567.477,297.684 563.659,297.153C558.39,296.421 555,295.28 555,294C555,292.683 558.59,291.513 564.123,290.784" style="fill:none;stroke:black;stroke-width:1px;"/>
                    </g>
                    <circle cx="632.5" cy="256.5" r="6.5" style="fill:black;stroke:black;stroke-width:1px;"/>
                    <g transform="matrix(1,0,0,1,1.13687e-13,-0.5)">
                        <circle cx="613" cy="270.5" r="1" style="fill:black;stroke:black;stroke-width:1px;"/>
                    </g>
                    <g transform="matrix(1,0,0,1,9,-50.5)">
                        <circle cx="613" cy="270.5" r="1" style="fill:black;stroke:black;stroke-width:1px;"/>
                    </g>
                    <g transform="matrix(1,0,0,1,-15.5,14)">
                        <circle cx="613" cy="270.5" r="1" style="fill:black;stroke:black;stroke-width:1px;"/>
                    </g>
                    <g transform="matrix(1,0,0,1,-39,68.5)">
                        <circle cx="613" cy="270.5" r="1" style="fill:black;stroke:black;stroke-width:1px;"/>
                    </g>
                    <g transform="matrix(1,0,0,1,-2,73.5)">
                        <circle cx="613" cy="270.5" r="1" style="fill:black;stroke:black;stroke-width:1px;"/>
                    </g>
                    <g transform="matrix(1,0,0,1,-57,-62.5)">
                        <circle cx="613" cy="270.5" r="1" style="fill:black;stroke:black;stroke-width:1px;"/>
                    </g>
                    <g transform="matrix(1,0,0,1,-67,-89.5)">
                        <circle cx="613" cy="270.5" r="1" style="fill:black;stroke:black;stroke-width:1px;"/>
                    </g>
                    <g transform="matrix(1,0,0,1,-34,-72.5)">
                        <circle cx="613" cy="270.5" r="1" style="fill:black;stroke:black;stroke-width:1px;"/>
                    </g>
                    <g transform="matrix(1,0,0,1,-57,-103.5)">
                        <circle cx="613" cy="270.5" r="1" style="fill:black;stroke:black;stroke-width:1px;"/>
                    </g>
                    <g transform="matrix(1,0,0,1,-95,-83.5)">
                        <circle cx="613" cy="270.5" r="1" style="fill:black;stroke:black;stroke-width:1px;"/>
                    </g>
                    <g transform="matrix(1,0,0,1,-43,-93.5)">
                        <circle cx="613" cy="270.5" r="1" style="fill:black;stroke:black;stroke-width:1px;"/>
                    </g>
                    <g transform="matrix(0.5,0,0,0.5,253.5,52.25)">
                        <circle cx="613" cy="270.5" r="1" style="fill:black;stroke:black;stroke-width:1px;"/>
                    </g>
                    <g transform="matrix(0.5,0,0,0.5,250.5,53.25)">
                        <circle cx="613" cy="270.5" r="1" style="fill:black;stroke:black;stroke-width:1px;"/>
                    </g>
                    <g transform="matrix(0.5,0,0,0.5,256.5,51.25)">
                        <circle cx="613" cy="270.5" r="1" style="fill:black;stroke:black;stroke-width:1px;"/>
                    </g>
                    <g transform="matrix(1,0,0,1.01462,17,15.5318)">
                        <circle cx="613" cy="270.5" r="1" style="fill:black;stroke:black;stroke-width:1px;"/>
                    </g>
                    <path d="M629.998,283.5C629.997,283.494 629.997,284.052 629.997,284.971C629.996,286.174 629.997,287.995 629.997,289.973M629.999,294.971C630,297.19 630,299.104 630,300" style="fill:none;stroke:black;stroke-width:1px;"/>
                    <path d="M630,280C629.996,279.969 630,279.094 630,282" style="fill:none;stroke:black;stroke-width:1px;"/>
                    <path d="M640,290C639.205,289.997 637.326,289.99 635,289.983C633.466,289.979 631.738,289.975 629.997,289.973M625,289.972C622.9,289.975 621.093,289.983 620,290" style="fill:none;stroke:black;stroke-width:1px;"/>
                    <g transform="matrix(1,0,0,1,0,-0.0292317)">
                        <path d="M635,290.013C634.993,292.766 632.754,295 629.999,295M625,290.001C625,287.243 627.239,285.002 629.997,285" style="fill:none;stroke:black;stroke-width:1px;"/>
                    </g>
                    <path d="M600,335L600,347" style="fill:none;stroke:black;stroke-width:1px;"/>
                    <path d="M597,341L603,341" style="fill:none;stroke:black;stroke-width:1px;"/>
                    <path d="M598,343L602,339" style="fill:none;stroke:black;stroke-width:1px;"/>
                    <path d="M598,339L602,343" style="fill:none;stroke:black;stroke-width:1px;"/>
                    <path d="M612.5,246C611.108,248.465 609.394,246.682 612.5,246Z" style="fill:none;stroke:black;stroke-width:1px;"/>
                    <path d="M520.099,249.9C519.983,249.925 520.025,249.891 520.025,250.044" style="fill:none;stroke:black;stroke-width:1px;"/>
                    <path d="M525.205,240.297C524.995,240.272 525.094,240.277 524.909,240.277" style="fill:none;stroke:black;stroke-width:1px;"/>
                    <path d="M532.743,247.599C532.557,247.605 532.492,247.675 532.492,247.86" style="fill:none;stroke:black;stroke-width:1px;"/>
                    <path d="M534.822,233.799C534.972,233.869 534.933,233.81 534.933,233.98" style="fill:none;stroke:black;stroke-width:1px;"/>
                    <path d="M541.031,257.864C540.917,257.955 540.601,258.27 540.845,258.27" style="fill:none;stroke:black;stroke-width:1px;"/>
                    <path d="M527.536,256.876C527.422,256.835 527.493,256.842 527.351,256.984" style="fill:none;stroke:black;stroke-width:1px;"/>
                    <path d="M529.239,244.41C529.317,244.37 529.207,244.39 529.15,244.39" style="fill:none;stroke:black;stroke-width:1px;"/>
                    <path d="M526.127,248.554C525.853,248.665 526.004,248.692 525.809,248.888" style="fill:none;stroke:black;stroke-width:1px;"/>
                    <path d="M538.818,240.06C538.619,240.01 538.715,240.02 538.532,240.02" style="fill:none;stroke:black;stroke-width:1px;"/>
                    <path d="M531.093,200.698C530.906,200.693 530.997,200.694 530.821,200.694" style="fill:none;stroke:black;stroke-width:1px;"/>
                    <path d="M537.12,214.035C536.945,214.068 536.733,214.148 536.733,213.931" style="fill:none;stroke:black;stroke-width:1px;"/>
                    <path d="M542.617,196.947C542.346,196.962 542.13,196.911 542.13,197.224" style="fill:none;stroke:black;stroke-width:1px;"/>
                    <path d="M531.913,195.906C531.755,195.933 531.622,195.939 531.463,195.939" style="fill:none;stroke:black;stroke-width:1px;"/>
                    <path d="M524.525,194.951C524.524,194.937 524.524,194.924 524.523,194.91" style="fill:none;stroke:black;stroke-width:1px;"/>
                    <path d="M534.104,180.147C534.221,180.115 534.148,180.145 534.291,180.002" style="fill:none;stroke:black;stroke-width:1px;"/>
                    <path d="M539.145,189.645C539.217,189.635 539.165,189.641 539.303,189.641" style="fill:none;stroke:black;stroke-width:1px;"/>
                    <path d="M533.188,189.597C533.116,189.828 533.13,189.774 533.006,189.898" style="fill:none;stroke:black;stroke-width:1px;"/>
                    <path d="M577.269,211.015C577.193,211.14 577.181,211.104 577.344,211.104" style="fill:none;stroke:black;stroke-width:1px;"/>
                    <path d="M572.517,206.975C572.441,206.824 572.502,206.863 572.332,206.863" style="fill:none;stroke:black;stroke-width:1px;"/>
                    <path d="M570.326,212.859C570.143,212.772 569.89,212.843 569.89,212.646" style="fill:none;stroke:black;stroke-width:1px;"/>
                    <path d="M588.247,206.634C588.266,206.492 588.268,206.362 588.268,206.22" style="fill:none;stroke:black;stroke-width:1px;"/>
                    <path d="M589.404,216.389C589.561,216.372 589.487,216.501 589.682,216.501" style="fill:none;stroke:black;stroke-width:1px;"/>
                    <path d="M595.87,210.164C595.846,210.375 595.794,210.333 595.979,210.333" style="fill:none;stroke:black;stroke-width:1px;"/>
                    <path d="M585.809,212.654C585.881,212.62 585.831,212.65 585.698,212.517" style="fill:none;stroke:black;stroke-width:1px;"/>
                    <path d="M585.932,188.179C585.98,188.282 585.886,188.159 585.826,188.099" style="fill:none;stroke:black;stroke-width:1px;"/>
                    <path d="M577.692,187.649C577.751,187.548 577.664,187.585 577.601,187.585" style="fill:none;stroke:black;stroke-width:1px;"/>
                    <path d="M581.711,176.38C581.539,176.413 581.457,176.332 581.457,176.532" style="fill:none;stroke:black;stroke-width:1px;"/>
                    <path d="M590.218,176.838C590.211,176.822 590.203,176.806 590.196,176.79" style="fill:none;stroke:black;stroke-width:1px;"/>
                    <path d="M593.267,186.472C593.112,186.413 593.193,186.428 593.023,186.428" style="fill:none;stroke:black;stroke-width:1px;"/>
                    <path d="M557.339,178.235C557.125,178.195 557.225,178.203 557.038,178.203" style="fill:none;stroke:black;stroke-width:1px;"/>
                    <path d="M552.164,199.043C552.03,199.024 551.905,199.023 551.769,199.023" style="fill:none;stroke:black;stroke-width:1px;"/>
                    <path d="M564.331,198.26C564.193,198.248 564.267,198.252 564.107,198.252" style="fill:none;stroke:black;stroke-width:1px;"/>
                    <path d="M570.68,169.436C570.491,169.472 570.583,169.464 570.404,169.464" style="fill:none;stroke:black;stroke-width:1px;"/>
                    <path d="M539.435,169.882C539.229,169.832 539.202,169.822 539.046,169.978" style="fill:none;stroke:black;stroke-width:1px;"/>
                    <path d="M598.147,167.476C597.998,167.557 598.078,167.536 597.907,167.536" style="fill:none;stroke:black;stroke-width:1px;"/>
                    <path d="M600.532,176.207C600.421,176.346 600.569,176.404 600.349,176.404" style="fill:none;stroke:black;stroke-width:1px;"/>
                    <path d="M615.934,213.983C615.923,213.966 615.911,213.948 615.899,213.931" style="fill:none;stroke:black;stroke-width:1px;"/>
                    <path d="M610.421,226.465C610.405,226.486 610.389,226.506 610.373,226.526" style="fill:none;stroke:black;stroke-width:1px;"/>
                    <path d="M629.805,211.614C629.668,211.617 629.531,211.618 629.394,211.618" style="fill:none;stroke:black;stroke-width:1px;"/>
                    <path d="M632.885,224.012C632.848,223.915 632.921,223.955 632.992,223.955" style="fill:none;stroke:black;stroke-width:1px;"/>
                    <path d="M624.699,227.373C624.469,227.437 624.575,227.425 624.381,227.425" style="fill:none;stroke:black;stroke-width:1px;"/>
                    <path d="M628.187,218.795C628.255,218.647 628.237,218.726 628.237,218.558" style="fill:none;stroke:black;stroke-width:1px;"/>
                    <path d="M638.248,243.418C638.094,243.343 638.176,243.362 638.004,243.362" style="fill:none;stroke:black;stroke-width:1px;"/>
                    <path d="M625.723,247.221C625.495,247.216 625.6,247.217 625.41,247.217" style="fill:none;stroke:black;stroke-width:1px;"/>
                    <path d="M609.061,236.614C608.79,236.539 608.91,236.55 608.702,236.55" style="fill:none;stroke:black;stroke-width:1px;"/>
                    <path d="M598.217,268.338C597.994,268.284 598.098,268.294 597.907,268.294" style="fill:none;stroke:black;stroke-width:1px;"/>
                    <path d="M583.446,274.186C583.344,274.219 583.406,274.206 583.256,274.206" style="fill:none;stroke:black;stroke-width:1px;"/>
                    <path d="M548.521,273.965C548.359,273.953 548.204,273.949 548.042,273.949" style="fill:none;stroke:black;stroke-width:1px;"/>
                    <path d="M555.025,277.206C554.89,277.272 554.854,277.226 554.854,277.419" style="fill:none;stroke:black;stroke-width:1px;"/>
                    <path d="M541.524,288.921C541.512,288.899 541.5,288.878 541.488,288.857" style="fill:none;stroke:black;stroke-width:1px;"/>
                    <path d="M531.602,305.431C531.494,305.485 531.046,305.564 531.335,305.564" style="fill:none;stroke:black;stroke-width:1px;"/>
                    <path d="M535.791,298.761C535.58,298.741 535.713,298.881 535.576,298.881" style="fill:none;stroke:black;stroke-width:1px;"/>
                    <path d="M545.901,307.018C545.826,306.949 545.857,307.048 545.857,307.106" style="fill:none;stroke:black;stroke-width:1px;"/>
                    <path d="M573.878,320.95C573.87,321.029 573.886,320.986 573.746,320.986" style="fill:none;stroke:black;stroke-width:1px;"/>
                    <path d="M566.19,328.368C566.181,328.349 566.172,328.33 566.163,328.311" style="fill:none;stroke:black;stroke-width:1px;"/>
                    <path d="M587.786,324.89C587.73,324.806 587.773,324.841 587.625,324.841" style="fill:none;stroke:black;stroke-width:1px;"/>
                    <path d="M592.142,314.078C591.899,314.238 591.867,314.119 591.867,314.432" style="fill:none;stroke:black;stroke-width:1px;"/>
                    <path d="M601.501,326.886C601.317,326.904 601.406,326.868 601.248,327.026" style="fill:none;stroke:black;stroke-width:1px;"/>
                    <path d="M586.286,338.396C586.394,338.532 586.212,338.47 586.212,338.593" style="fill:none;stroke:black;stroke-width:1px;"/>
                    <path d="M565.488,355.517C565.315,355.548 565.179,355.557 565.006,355.557" style="fill:none;stroke:black;stroke-width:1px;"/>
                    <path d="M582.97,357.308C582.979,357.324 582.989,357.34 582.999,357.356" style="fill:none;stroke:black;stroke-width:1px;"/>
                    <path d="M582.477,349.685C582.493,349.603 582.485,349.718 582.485,349.774" style="fill:none;stroke:black;stroke-width:1px;"/>
                    <path d="M617.075,352.653C617.057,352.852 617.056,353.045 617.056,353.244" style="fill:none;stroke:black;stroke-width:1px;"/>
                    <path d="M627.132,343.87C627.038,343.855 627.08,343.845 627.08,343.991" style="fill:none;stroke:black;stroke-width:1px;"/>
                    <path d="M619.969,337.203C619.775,337.298 619.626,337.334 619.626,337.565" style="fill:none;stroke:black;stroke-width:1px;"/>
                    <path d="M610.711,333.127C610.651,333.177 610.152,333.324 610.502,333.324" style="fill:none;stroke:black;stroke-width:1px;"/>
                    <path d="M614.3,324.89C614.06,324.986 614.172,324.97 613.972,324.97" style="fill:none;stroke:black;stroke-width:1px;"/>
                    <path d="M607.989,325.263C607.762,325.376 607.874,325.484 607.674,325.484" style="fill:none;stroke:black;stroke-width:1px;"/>
                    <path d="M608.702,319.432C608.702,319.35 608.702,319.268 608.702,319.187" style="fill:none;stroke:black;stroke-width:1px;"/>
                    <path d="M603.323,322.825C603.135,322.774 603.227,322.785 603.048,322.785" style="fill:none;stroke:black;stroke-width:1px;"/>
                    <path d="M612.275,319.464C612.335,319.417 612.312,319.444 612.172,319.444" style="fill:none;stroke:black;stroke-width:1px;"/>
                    <path d="M618.827,329.151C618.675,329.242 618.754,329.239 618.598,329.083" style="fill:none;stroke:black;stroke-width:1px;"/>
                    <path d="M610.368,306.403C610.206,306.482 610.29,306.464 610.116,306.464" style="fill:none;stroke:black;stroke-width:1px;"/>
                    <path d="M606.419,312.745C606.279,312.759 606.144,312.761 606.003,312.761" style="fill:none;stroke:black;stroke-width:1px;"/>
                    <path d="M615.816,297.652C615.744,297.563 615.795,297.596 615.642,297.596" style="fill:none;stroke:black;stroke-width:1px;"/>
                    <path d="M628.224,304.969C628.447,304.893 628.404,305.05 628.622,305.05" style="fill:none;stroke:black;stroke-width:1px;"/>
                    <path d="M637.857,285.511C637.918,285.524 637.882,285.515 637.747,285.515" style="fill:none;stroke:black;stroke-width:1px;"/>
                    <path d="M618.302,279.607C618.107,279.604 617.956,279.687 617.956,279.475" style="fill:none;stroke:black;stroke-width:1px;"/>
                    <path d="M607.802,289.074C607.804,289.156 607.816,289.114 607.674,289.114" style="fill:none;stroke:black;stroke-width:1px;"/>
                    <path d="M629.055,270.692C629.039,270.706 629.024,270.721 629.008,270.736" style="fill:none;stroke:black;stroke-width:1px;"/>
                    <path d="M651.589,298.198C651.459,298.256 651.531,298.238 651.37,298.238" style="fill:none;stroke:black;stroke-width:1px;"/>
                    <path d="M647.115,288.443C646.959,288.481 647.04,288.471 646.872,288.471" style="fill:none;stroke:black;stroke-width:1px;"/>
                    <path d="M642.283,274.937C642.131,274.973 642.014,274.977 641.86,274.977" style="fill:none;stroke:black;stroke-width:1px;"/>
                    <path d="M647.983,260.816C647.729,260.845 647.772,260.911 647.772,260.711" style="fill:none;stroke:black;stroke-width:1px;"/>
                    <path d="M652.408,239.839C652.403,239.838 651.779,239.763 652.141,239.763" style="fill:none;stroke:black;stroke-width:1px;"/>
                    <path d="M654.058,245.518C654.066,245.355 654.069,245.195 654.069,245.032" style="fill:none;stroke:black;stroke-width:1px;"/>
                    <path d="M655.285,239.293C655.191,239.223 655.308,239.249 655.354,239.249" style="fill:none;stroke:black;stroke-width:1px;"/>
                    <path d="M658.993,253.398C658.979,253.394 658.966,253.39 658.953,253.386" style="fill:none;stroke:black;stroke-width:1px;"/>
                    <path d="M660.236,265.197C660.049,265.215 660.089,265.189 659.981,265.081" style="fill:none;stroke:black;stroke-width:1px;"/>
                    <path d="M665.004,258.394C664.771,258.398 664.825,258.398 664.607,258.398" style="fill:none;stroke:black;stroke-width:1px;"/>
                    <path d="M665.529,274.443C665.482,274.21 665.378,274.354 665.378,274.206" style="fill:none;stroke:black;stroke-width:1px;"/>
                    <path d="M652.392,280.017C652.228,279.979 652.312,279.989 652.141,279.989" style="fill:none;stroke:black;stroke-width:1px;"/>
                    <path d="M664.473,286.226C664.317,286.302 664.093,286.381 664.093,286.158" style="fill:none;stroke:black;stroke-width:1px;"/>
                    <path d="M659.046,291.668C658.91,291.691 658.953,291.652 658.953,291.813" style="fill:none;stroke:black;stroke-width:1px;"/>
                    <path d="M670.126,295.949C670.034,295.931 669.748,295.764 669.748,295.668" style="fill:none;stroke:black;stroke-width:1px;"/>
                    <path d="M671.111,287.439C671.177,287.612 671.162,287.524 671.162,287.7" style="fill:none;stroke:black;stroke-width:1px;"/>
                    <path d="M656.137,274.9C656.116,274.806 656.143,274.848 655.997,274.848" style="fill:none;stroke:black;stroke-width:1px;"/>
                    <path d="M646.911,270.86C646.898,270.862 646.885,270.863 646.872,270.864" style="fill:none;stroke:black;stroke-width:1px;"/>
                    <path d="M616.497,265.334C616.512,265.335 616.527,265.337 616.542,265.338" style="fill:none;stroke:black;stroke-width:1px;"/>
                    <path d="M613.041,265.812C612.904,265.868 612.979,265.852 612.815,265.852" style="fill:none;stroke:black;stroke-width:1px;"/>
                    <path d="M510.209,243.044C510.02,243.099 509.744,243.032 509.744,243.233" style="fill:none;stroke:black;stroke-width:1px;"/>
                    <path d="M511.693,252.221C511.632,252.244 511.679,252.229 511.543,252.229" style="fill:none;stroke:black;stroke-width:1px;"/>
                    <path d="M527.675,314.347C527.561,314.491 527.692,314.56 527.479,314.56" style="fill:none;stroke:black;stroke-width:1px;"/>
                    <path d="M556.348,357.939C556.422,358.033 556.37,357.999 556.524,357.999" style="fill:none;stroke:black;stroke-width:1px;"/>
                    <path d="M558.105,352.758C557.901,352.88 558.003,352.858 557.809,352.858" style="fill:none;stroke:black;stroke-width:1px;"/>
                    <path d="M559.177,321.086C558.924,321.12 559.037,321.114 558.838,321.114" style="fill:none;stroke:black;stroke-width:1px;"/>
                    <path d="M676.356,282.029C676.131,282.049 676.174,281.984 676.174,282.174" style="fill:none;stroke:black;stroke-width:1px;"/>
                    <path d="M677.069,286.174C677.07,286.168 677.072,286.163 677.074,286.158" style="fill:none;stroke:black;stroke-width:1px;"/>
                    <path d="M596.449,225.598C596.324,225.64 596.394,225.626 596.236,225.626" style="fill:none;stroke:black;stroke-width:1px;"/>
                    <path d="M598.185,229.454C597.955,229.583 598.013,229.61 597.778,229.61" style="fill:none;stroke:black;stroke-width:1px;"/>
                    <path d="M622.963,204.826C622.977,204.764 622.968,204.813 622.968,204.678" style="fill:none;stroke:black;stroke-width:1px;"/>
                    <path d="M597.912,198.465C597.9,198.254 597.778,198.393 597.778,198.252" style="fill:none;stroke:black;stroke-width:1px;"/>
                    <path d="M597.842,196.911C597.647,196.837 597.521,196.806 597.521,196.581" style="fill:none;stroke:black;stroke-width:1px;"/>
                    <path d="M611.407,171.721C611.405,171.74 611.403,171.759 611.401,171.777" style="fill:none;stroke:black;stroke-width:1px;"/>
                    <path d="M607.7,163.094C607.679,162.942 607.674,162.806 607.674,162.653" style="fill:none;stroke:black;stroke-width:1px;"/>
                    <path d="M609.977,167.356C609.994,167.235 609.73,167.269 609.73,167.022" style="fill:none;stroke:black;stroke-width:1px;"/>
                    <path d="M521.578,176.769C521.49,176.782 520.859,176.79 521.182,176.79" style="fill:none;stroke:black;stroke-width:1px;"/>
                    <path d="M522.194,174.316C522.206,174.153 522.21,173.996 522.21,173.834" style="fill:none;stroke:black;stroke-width:1px;"/>
                    <path d="M523.962,176.806C524.05,176.776 523.931,176.79 523.881,176.79" style="fill:none;stroke:black;stroke-width:1px;"/>
                    <path d="M535.299,166.368C535.149,166.207 535.228,166.289 535.062,166.123" style="fill:none;stroke:black;stroke-width:1px;"/>
                    <path d="M556.268,304.166C556.265,304.09 556.271,304.146 556.139,304.279" style="fill:none;stroke:black;stroke-width:1px;"/>
                    <path d="M564.111,279.081C564.105,278.918 564.069,278.961 563.978,278.961" style="fill:none;stroke:black;stroke-width:1px;"/>
                    <path d="M549.099,285.511C548.95,285.515 548.813,285.404 548.813,285.258" style="fill:none;stroke:black;stroke-width:1px;"/>
                    <path d="M530.568,263.406C530.536,263.437 530.479,263.41 530.435,263.41" style="fill:none;stroke:black;stroke-width:1px;"/>
                    <path d="M608.278,257.354C608.017,257.373 608.133,257.37 607.931,257.37" style="fill:none;stroke:black;stroke-width:1px;"/>
                    <path d="M544.213,221.606C544.161,221.676 544.202,221.642 544.058,221.642" style="fill:none;stroke:black;stroke-width:1px;"/>
                    <path d="M545.371,212.57C545.323,212.479 545.363,212.517 545.215,212.517" style="fill:none;stroke:black;stroke-width:1px;"/>
                    <path d="M540.592,207.023C540.456,206.99 540.342,206.991 540.203,206.991" style="fill:none;stroke:black;stroke-width:1px;"/>
                </g>
            </g>
        </g>
    </g>
</svg>
